<?xml version="1.0" encoding="utf-8" ?>
<svg baseProfile="full" height="200mm" version="1.1" viewBox="0,0,200,200" width="200mm" xmlns="http://www.w3.org/2000/svg" xmlns:ev="http://www.w3.org/2001/xml-events" xmlns:xlink="http://www.w3.org/1999/xlink"><defs /><rect fill="#1a1a1a" height="200" width="200" x="0" y="0" /><text alignment-baseline="middle" fill="#e1ed5e" style="dominant-baseline: central; font-size:9.0px; font-family:Arial;" text-anchor="middle" x="100.0" y="100.0">2018</text><line stroke="#e1ed5e" stroke-width="0.3" x1="100.0" x2="100.0" y1="15.0" y2="10.0" /><path d="M 100.0 14.0 a86.0,86.0 0 0,1 42.46469731375804,11.215312516191453" fill="none" id="id13" stroke="none" /><text fill="#e1ed5e" style="font-size:6.75px; font-family:Arial;" text-anchor="middle"><textPath startOffset="22.20632615414155" xlink:href="#id13">January</textPath></text><line stroke="#e1ed5e" stroke-width="0.3" x1="143.23703022742887" x2="145.7803849466894" y1="26.81831364943548" y2="22.513508569990506" /><path d="M 143.74570117128098 25.957352633546492 a86.0,86.0 0 0,1 28.547481713284135,27.462654790039103" fill="none" id="id14" stroke="none" /><text fill="#e1ed5e" style="font-size:6.75px; font-family:Arial;" text-anchor="middle"><textPath startOffset="19.985693538727396" xlink:href="#id14">February</textPath></text><path d="M 117.04232023915458 87.72973835380427 l 15.665424841864967 -11.278913839846552 a40.3033528922517,40.3033528922517 0 0,0 0.400514339438267,0.5664991295985086 l -15.857251801107116 11.007588209916252" fill="#ff3d05" stroke="none" /><path d="M 117.2510076193507 88.02491185347247 l 19.133254282886405 -13.281682532589011 a44.2912968799522,44.2912968799522 0 0,0 0.42936306802671576,0.6300373217093619 l -19.359041816581854 12.950367187609244" fill="#ff850c" stroke="none" /><line stroke="#e1ed5e" stroke-width="0.3" x1="172.23445277983987" x2="176.4835382374775" y1="55.19839476539836" y2="52.563006222186495" /><path d="M 173.08426987136738 54.67131705675599 a86.0,86.0 0 0,1 12.851231095245387,41.99856678651699" fill="none" id="id15" stroke="none" /><text fill="#e1ed5e" style="font-size:6.75px; font-family:Arial;" text-anchor="middle"><textPath startOffset="22.20632615414155" xlink:href="#id15">March</textPath></text><path d="M 119.47837535516314 92.15188598940014 l 27.112324917014824 -10.923940686087958 a50.230303496866924,50.230303496866924 0 0,0 0.31622714827074216,0.8047635998051256 l -27.29634561516727 10.455628081387047" fill="#ffea16" stroke="none" /><path d="M 119.61058180528143 92.48833698450437 l 53.78316198843752 -20.6011730185462 a78.59372225524746,78.59372225524746 0 0,0 0.4730421840781417,1.267517871552147 l -54.12980876101729 19.672332009964716" fill="#44ffe8" stroke="none" /><path d="M 119.85752413597 93.16781622104841 l 33.83996290525752 -11.642984495878094 a56.78689952203827,56.78689952203827 0 0,0 0.31006378940511836,0.9270512646572718 l -34.03536398843441 11.058760128298509" fill="#aeff20" stroke="none" /><path d="M 120.18372546131832 94.20196356495316 l 59.349020452057644 -17.048774450724963 a82.74922622098555,82.74922622098555 0 0,0 0.3814866582661046,1.372410483028445 l -59.633693880890114 16.024652664277568" fill="#4be1ff" stroke="none" /><path d="M 120.37134235888165 94.90015583598534 l 55.95062807748089 -14.006906321982783 a78.67725901061348,78.67725901061348 0 0,0 0.31758337759447225,1.3165881308994114 l -56.183444255336184 13.041732959423966" fill="#44ffe9" stroke="none" /><path d="M 120.53481517161879 95.60439243477599 l 60.306680508637534 -12.909027856442007 a82.67283611258102,82.67283611258102 0 0,0 0.2858933127237954,1.394117325784645 l -60.51995311727632 11.86903487449395" fill="#4be2ff" stroke="none" /><path d="M 120.6074358757038 95.95851677861258 l 60.70095000859592 -11.904531571113731 a82.8572809285512,82.8572809285512 0 0,0 0.2624377171314288,1.4019527788455879 l -60.896873449637205 10.857900714805579" fill="#4be0ff" stroke="none" /><path d="M 120.73433829027371 96.67025291283417 l 58.57293416035854 -9.406283151013216 a80.32340835514032,80.32340835514032 0 0,0 0.20747959629213625,1.3670313067533522 l -58.72616965008998 8.396652731867782" fill="#47ffff" stroke="none" /><path d="M 120.78858239683441 97.02765380044208 l 45.92404675228722 -6.5662084709184745 a67.39108927143039,67.39108927143039 0 0,0 0.1543063428581383,1.1497614854398233 l -46.03026909420319 5.774728643413987" fill="#32ff46" stroke="none" /><path d="M 120.83666639777658 97.38593545837742 l 62.50999919332973 -7.84219362486773 a84.0,84.0 0 0,0 0.16763858798564435,1.436225046700589 l -62.63572813431897 6.7650248398422885" fill="#4dd2ff" stroke="none" /><line stroke="#e1ed5e" stroke-width="0.3" x1="184.98032266829074" x2="189.97916517819016" y1="98.17113171792111" y2="98.06355123074" /><path d="M 185.9800911702706 98.14961562048488 a86.0,86.0 0 0,1 -9.607161424134198,41.387399972396054" fill="none" id="id16" stroke="none" /><text fill="#e1ed5e" style="font-size:6.75px; font-family:Arial;" text-anchor="middle"><textPath startOffset="21.466115282336823" xlink:href="#id16">April</textPath></text><path d="M 119.9155931802556 106.66101706037122 l 24.949247644062474 8.344585204988295 a47.30773764974986,47.30773764974986 0 0,0 -0.26494398642584366,0.7700512420845014 l -24.8019128266934 -8.772809150162097" fill="#ffb911" stroke="none" /><path d="M 119.54520255179757 107.68017299344265 l 14.995923312909923 5.892560332098248 a37.11210672985048,37.11210672985048 0 0,0 -0.23874993326683008,0.5925577546287544 l -14.892270765385701 -6.149817454569816" fill="#ff0000" stroke="none" /><path d="M 119.26925614724726 108.34839909993367 l 16.400922116554185 7.105694293003794 a38.87403529309772,38.87403529309772 0 0,0 -0.27130173546069597,0.6117137918974338 l -16.276179296362216 -7.386956421393916" fill="#ff2203" stroke="none" /><path d="M 119.12269723197855 108.67885076344098 l 18.547734605637984 8.417903535754867 a41.36859246336023,41.36859246336023 0 0,0 -0.29987380183485124,0.6459014911264774 l -18.400086186963303 -8.735925094160175" fill="#ff5007" stroke="none" /><line stroke="#e1ed5e" stroke-width="0.3" x1="174.80103733775053" x2="179.2010983576182" y1="140.37084112569926" y2="142.7455964860345" /><path d="M 175.68104954172406 140.8457921977663 a86.0,86.0 0 0,1 -30.038265399797805,32.042727171017184" fill="none" id="id17" stroke="none" /><text fill="#e1ed5e" style="font-size:6.75px; font-family:Arial;" text-anchor="middle"><textPath startOffset="22.206326154141568" xlink:href="#id17">May</textPath></text><line stroke="#e1ed5e" stroke-width="0.3" x1="143.8653032363475" x2="146.44561519142675" y1="172.8068346515853" y2="177.08958963109032" /><path d="M 144.38136562736335 173.6633856474863 a86.0,86.0 0 0,1 -40.68145358897372,12.25698825130547" fill="none" id="id18" stroke="none" /><text fill="#e1ed5e" style="font-size:6.75px; font-family:Arial;" text-anchor="middle"><textPath startOffset="21.466115282336833" xlink:href="#id18">June</textPath></text><line stroke="#e1ed5e" stroke-width="0.3" x1="102.19456741930631" x2="102.32365962044197" y1="184.97166512339345" y2="189.96999836594603" /><path d="M 102.22038585953345 185.97133177190398 a86.0,86.0 0 0,1 -42.740103519485714,-10.115201625700543" fill="none" id="id19" stroke="none" /><text fill="#e1ed5e" style="font-size:6.75px; font-family:Arial;" text-anchor="middle"><textPath startOffset="22.20632615414155" xlink:href="#id19">July</textPath></text><line stroke="#e1ed5e" stroke-width="0.3" x1="58.666819895761336" x2="56.23545636021788" y1="174.27360380694188" y2="178.64263932499728" /><path d="M 58.180547188652646 175.14741091055294 a86.0,86.0 0 0,1 -31.652253787137756,-30.449443065178592" fill="none" id="id20" stroke="none" /><text fill="#e1ed5e" style="font-size:6.75px; font-family:Arial;" text-anchor="middle"><textPath startOffset="22.20632615414155" xlink:href="#id20">August</textPath></text><line stroke="#e1ed5e" stroke-width="0.3" x1="26.63291911575756" x2="22.317208475507996" y1="142.92168965132927" y2="145.44649492493687" /><path d="M 25.769776987707644 143.4266507060508 a86.0,86.0 0 0,1 -11.730757126820373,-40.83630448921669" fill="none" id="id21" stroke="none" /><text fill="#e1ed5e" style="font-size:6.75px; font-family:Arial;" text-anchor="middle"><textPath startOffset="21.46611528233685" xlink:href="#id21">September</textPath></text><line stroke="#e1ed5e" stroke-width="0.3" x1="15.007084014347285" x2="10.007500721073583" y1="101.09737516637583" y2="101.16192664675087" /><path d="M 14.007167355692545 101.11028546245083 a86.0,86.0 0 0,1 10.666146001902534,-42.60595125391555" fill="none" id="id22" stroke="none" /><text fill="#e1ed5e" style="font-size:6.75px; font-family:Arial;" text-anchor="middle"><textPath startOffset="22.20632615414155" xlink:href="#id22">October</textPath></text><line stroke="#e1ed5e" stroke-width="0.3" x1="26.266209847984243" x2="21.928928074336255" y1="57.711370442889674" y2="55.22380399835377" /><path d="M 25.398753493254645 57.213857153982495 a86.0,86.0 0 0,1 29.58750427330803,-30.492523968695096" fill="none" id="id23" stroke="none" /><text fill="#e1ed5e" style="font-size:6.75px; font-family:Arial;" text-anchor="middle"><textPath startOffset="21.46611528233685" xlink:href="#id23">November</textPath></text><line stroke="#e1ed5e" stroke-width="0.3" x1="56.762969772571076" x2="54.21961505331055" y1="26.818313649435495" y2="22.513508569990535" /><path d="M 56.25429882871897 25.957352633546506 a86.0,86.0 0 0,1 42.265352541879196,-11.944610805530505" fill="none" id="id24" stroke="none" /><text fill="#e1ed5e" style="font-size:6.75px; font-family:Arial;" text-anchor="middle"><textPath startOffset="22.20632615414155" xlink:href="#id24">December</textPath></text></svg>